<svg width="120" height="120" viewBox="0 0 120 120" fill="none" xmlns="http://www.w3.org/2000/svg">
<path fill-rule="evenodd" clip-rule="evenodd" d="M44.7021 29.9735C36.4559 42.5063 33.9929 46.5967 30.7163 53.1719C22.0087 70.6088 20.8874 84.4845 27.1102 97.2595C31.8158 106.891 40.6553 114.147 50.902 116.808C54.3542 117.709 56.0689 117.93 60.0939 117.93C65.3056 117.93 68.8233 117.27 73.5736 115.401C82.5669 111.882 90.5492 103.923 94.1334 94.8849C99.0364 82.5483 97.6959 69.9489 89.7573 53.8088C87.5665 49.3432 85.4409 45.9747 82.0059 40.5309C80.0963 37.5046 77.782 33.837 74.8269 28.983L59.959 2.51126L44.7021 29.9735ZM56.833 74.1068C56.833 80.4106 53.953 84.031 49.5457 84.031C45.1821 84.031 42.3022 80.4106 42.3022 74.1068C42.3022 67.8456 45.1821 64.3103 49.5457 64.3103C53.953 64.3103 56.833 67.8456 56.833 74.1068ZM45.3131 74.1068C45.3131 79.0902 47.0585 81.6032 49.5457 81.6032C52.0766 81.6032 53.8221 79.0902 53.8221 74.1068C53.8221 69.1234 52.0766 66.6955 49.5457 66.6955C47.0585 66.6955 45.3131 69.1234 45.3131 74.1068ZM53.1675 96.6813H50.5057L68.1347 64.3103H70.8401L53.1675 96.6813ZM79.0873 86.7996C79.0873 93.1034 76.2073 96.6813 71.8437 96.6813C67.4801 96.6813 64.5565 93.1034 64.5565 86.7996C64.5565 80.5384 67.4801 77.0031 71.8437 77.0031C76.2073 77.0031 79.0873 80.5384 79.0873 86.7996ZM67.6111 86.7996C67.6111 91.783 69.3129 94.296 71.8437 94.296C74.331 94.296 76.0764 91.783 76.0764 86.7996C76.0764 81.8162 74.331 79.3884 71.8437 79.3884C69.3129 79.3884 67.6111 81.8162 67.6111 86.7996Z" fill="#7C7C7C"/>
</svg>
