<svg width="120" height="120" viewBox="0 0 120 120" fill="none" xmlns="http://www.w3.org/2000/svg">
<path fill-rule="evenodd" clip-rule="evenodd" d="M60 0C26.8629 0 0 26.8629 0 60C0 93.1371 26.8629 120 60 120C93.1371 120 120 93.1371 120 60C120 26.8629 93.1371 0 60 0ZM58.4764 65.0432C58.4764 73.5392 54.3724 76.4192 48.9724 76.4192C43.6084 76.4192 39.5044 73.5392 39.5044 65.0432V49.5272H42.8524V65.1512C42.8524 71.5232 45.5524 73.5032 48.9724 73.5032C52.5004 73.5032 55.2724 71.5232 55.2724 65.1512V49.5272H58.4764V65.0432ZM74.1291 75.9512H70.2771L61.8531 49.5272H65.3451L69.6291 63.8552C70.0121 65.122 70.3409 66.2924 70.6647 67.4453C71.1323 69.1099 71.5896 70.7381 72.1851 72.5672H72.3291C72.8768 70.8229 73.3216 69.2614 73.773 67.6767C74.1227 66.4487 74.4765 65.2069 74.8851 63.8552L79.1331 49.5272H82.5171L74.1291 75.9512Z" fill="#7C7C7C"/>
</svg>
